<svg width="165" height="21" viewBox="0 0 165 21" fill="none" xmlns="http://www.w3.org/2000/svg">
<path d="M22.6629 9.43059C23.6944 8.28124 24.2838 6.86665 24.2838 5.42259C24.2838 2.38712 22.8397 0 18.1539 0H0V20.6294H18.8612C23.547 20.6294 25.5805 18.0949 25.5805 14.6174C25.5805 12.2303 24.4311 10.521 22.6629 9.43059ZM5.30471 3.83118H16.2383C17.6824 3.83118 18.9791 3.83118 18.9791 5.95306C18.9791 8.10441 17.6824 8.10441 16.2678 8.10441H16.2383H5.30471V3.83118ZM17.5645 16.533H5.30471V12.1714H17.5645C18.9791 12.1714 20.2758 12.1714 20.2758 14.3522C20.2758 16.533 18.9791 16.533 17.5645 16.533Z" fill="#3CFFD0"/>
<path d="M49.1491 4.21429V0H27.3409V20.6294H49.1491V16.4151H32.6456V12.2303H49.1491V8.39912H32.6456V4.21429H49.1491Z" fill="#3CFFD0"/>
<path d="M73.3935 20.6294H79.2582L68.5898 0H61.4285L50.7896 20.6294H56.6247L58.835 16.2383H71.1832L73.3935 20.6294ZM60.8096 12.2892L65.0239 3.91959L69.2087 12.2892H60.8096Z" fill="#3CFFD0"/>
<path d="M100.05 0H74.7056V4.45006H84.7256V20.6294H90.0303V4.45006H100.05V0Z" fill="#3CFFD0"/>
<path d="M125.901 7.57394C125.901 2.97653 122.689 0 118.003 0H101.794V20.6294H107.099V15.1184H115.646L118.976 20.6294H125.224L121.422 14.4995C124.192 13.4091 125.901 10.9336 125.901 7.57394ZM107.099 4.45006H116.53C118.121 4.45006 120.597 4.45006 120.597 7.57394C120.597 10.6684 118.121 10.6684 116.53 10.6684H107.099V4.45006Z" fill="#3CFFD0"/>
<path d="M132.943 0H127.639V20.6294H132.943V0Z" fill="#3CFFD0"/>
<path d="M134.481 20.6294H141.79L149.688 13.5565L157.557 20.6294H164.895L153.284 10.3147L164.895 0H157.557L149.688 7.07294L141.79 0H134.481L146.093 10.3147L134.481 20.6294Z" fill="#3CFFD0"/>
</svg>
